<svg id="Layer_1" data-name="Layer 1" xmlns="http://www.w3.org/2000/svg" viewBox="0 0 2560 1600"><defs><style>.cls-1{fill:#010101;}</style></defs><title>Artboard 2</title><path class="cls-1" d="M2490.81,87.1l-18.32-4.87c9.41-39.44-.67-44.92-.67-44.92s-44.14-21-58.7,34c-14.28,55,34.43,58.55,34.43,58.55s11.49,0,22.52-38.33l17.1,4.65c-1.26,3.92-15.2,48-35.36,111.62L2435,203.22c9.37-39.35-.67-44.93-.67-44.93s-44.17-20.88-58.84,34.14c-14.24,55.06,34.5,58.49,34.5,58.49s11.42.22,22.49-38.24L2449,217c-10.2,32.26-21.82,68.78-34.09,107.38l-19.05-5c9.4-39.44-.64-45-.64-45s-44.17-20.88-58.77,34.08c-14.27,55,34.43,58.55,34.43,58.55s11.33.25,22.46-38.21l18.64,4.93c-11.23,35.31-22.83,72-34.29,108.28l-16.4-4.39c9.32-39.41-.66-45-.66-45s-44.21-20.91-58.8,34.05c-14.28,55.08,34.4,58.58,34.4,58.58s11.58.06,22.52-38.27l16.07,4.2c-12,37.93-23.69,75-34.69,109.56l-15.82-4.2c9.51-39.47-.63-45-.63-45s-44.17-20.88-58.71,34.08c-14.24,55,34.4,58.58,34.4,58.58s11.42.09,22.56-38.36l15.33,4.09c-13.86,43.67-25.89,82.05-34.89,110.72l-14.09-3.79c9.38-39.35-.66-44.93-.66-44.93s-44.11-21-58.74,34.05c-14.31,55.12,34.4,58.58,34.4,58.58s11.48.15,22.55-38.37l13.73,3.76c-5.07,16.16-8.9,28.63-11.17,35.94-21.93,72.13-24.49,94.36,7.66,109.19s46.58,47.23,46.55,47.33c-.08,1.15-.06,2.47-.11,4.24-.74,26-3.08,117-4.34,164.79q-4.8,182.08-9.58,363.92-6,230.63-12,461.35-6.2,235.79-12.33,471.58c-4.42,171.87-10.29,343.74-14.06,515.61-1,50.47,1.13,99.34-47.46,129.18-43.37,26.65-104.72,22.76-150.29,3.06-95.27-41.17-142.83-140.33-152.56-239-4.64-47.29,2.37-137.53-64.62-141-107.27-5.49-138.27,160.94-147.52,238.67-22.26,187.91,40.77,343.88,93.3,519.16,26.45,88.26,43.4,180,29.52,272.14-13.71,91.51-58.58,164.25-99,245.21-24.9,49.83-48,100.57-68.11,152.57-75.26,194.19-124.78,436.8-22,630.58,50.06,94.5,134.56,161.29,231.69,203.11a970.48,970.48,0,0,0,154,51.11c209.38,51.09,437.65,55,652.07,42.29,105-6.16,213.2-23.86,304.34-79.17,109.77-66.6,191.64-182.72,227.05-305.15,70.52-243.92-127.87-615.32-127.87-615.32-23-45.07-46.18-90.08-65-136.94-33.64-83.89-46.12-170.1-26.1-259.07,10-43.81,25.37-86.24,41-128.28,19.16-51.4,40.8-100.46,54.45-153.72,20.53-80,28.29-165.81,1.88-245.5-7.7-23-18.31-53.52-35.44-72.27-24.74-26.85-68.41-49.43-102.82-25.32-34.88,24.52-37.29,71-47.52,108.75-13,47.76-31.35,95.41-62.66,134.38-26.55,33.17-65.93,47.71-107.14,52.56-54.19,6.36-135.87-5.82-177.45-46.37-3.79-3.74-7.47-5.23-7.53-11.47,0-2-11.79-2077.73-9.67-2272.17,2.13-194.63,132.64-225.45,132.64-225.45,2.34-107.89-45.59-299.75-60.46-373.24-14.7-73.59,78.6-61.5,102.7-137.84,24.22-76.54-14.63-183.72-111.35-189.28-80.74-4.46-120.41,71.4-131.37,97ZM2256.25,3129.66c87.56,48.26,180.43,85.34,273.41,121.62,100.63,39.29,207.64,95.58,313.74,38.18,24.18-13.16,50.73-31.88,69-52.63,45.38-51.21,64.39-116,79.78-181.24,3.34-14.34,5.28-50.29,26.79-46.07s36.86,42,42.4,59.35c13.14,40.23,11.4,84.84,6.79,126.39-15.52,139.89-87.94,259.37-117.86,394.69-15.13,68.59-4.28,135.44,18.11,201.13,35.94,105.64,82,207.78,125.53,310.54q9.74,22.94,19.41,46c20.83,49.45,39.25,98.2,53.48,150,11.82,43.25,32.48,124.87-17,155.93-18.21,11.32-43.16,6.45-62.06-.52-45.57-16.78-82-55.65-115.37-89.22-40.74-40.93-94.08-73.52-147.88-93.9-47.65-18-97.21-25.64-147.53-28.6-49.62-3-99.83-1.26-149.16-.54-74.76,1.08-149.71-3.44-224.43.73-49.42,2.58-115.88,10.83-161.26-14.79-112.69-63.59-114.63-224.9-88.34-334.14,8.36-34.91,20.55-69.17,34.1-102.49,48.2-117.75,91.81-237.12,95.89-365.81,2.39-77.71-15-148.23-28.57-223.8-3.79-21.31-8.48-45.62,1-66C2177.16,3088.58,2223.94,3111.94,2256.25,3129.66Z"/></svg>