<svg enable-background="new 0 0 100 100" viewBox="0 0 100 125" xmlns="http://www.w3.org/2000/svg"><path d="m90.012 8.518-.213-.358c.754-.475.68-.716.68-.716s-.371-1.008-1.445-.368c-1.07.645-.359 1.449-.359 1.449s.18.177.943-.256l.197.336c-.08.042-.977.521-2.271 1.21l-.193-.33c.752-.474.68-.716.68-.716s-.373-1.007-1.449-.368c-1.07.646-.357 1.449-.357 1.449s.176.179.941-.255l.193.321c-.656.35-1.4.745-2.186 1.163l-.223-.371c.754-.475.682-.717.682-.717s-.373-1.007-1.447-.368c-1.07.645-.359 1.449-.359 1.449s.174.178.94-.255l.217.364c-.719.382-1.465.78-2.203 1.174l-.19-.321c.752-.476.681-.717.681-.717s-.373-1.008-1.447-.369c-1.071.646-.36 1.449-.36 1.449s.181.179.942-.255l.188.313c-.771.412-1.525.814-2.229 1.188l-.184-.309c.756-.474.682-.717.682-.717s-.373-1.007-1.446-.367c-1.069.645-.36 1.449-.36 1.449s.178.177.944-.256l.178.3c-.889.473-1.668.891-2.25 1.203l-.163-.276c.752-.474.68-.716.68-.716s-.37-1.008-1.446-.368c-1.072.646-.36 1.449-.36 1.449s.178.179.944-.256l.158.27c-.328.176-.58.313-.728.393-1.453.796-1.835 1.106-1.558 1.833.276.726.006 1.458.004 1.459-.019.017-.039.038-.067.065-.412.398-1.847 1.791-2.601 2.522-1.916 1.858-3.83 3.713-5.744 5.57-2.426 2.354-4.854 4.708-7.28 7.063-2.481 2.406-4.964 4.812-7.442 7.219-2.711 2.632-5.445 5.242-8.146 7.884-.792.777-1.509 1.578-2.731 1.3-1.091-.248-1.995-1.252-2.408-2.262-.864-2.111-.087-4.4 1.277-6.1.654-.814 2.151-2.124 1.152-3.208-1.601-1.735-4.646.403-5.986 1.482-3.238 2.61-4.645 6.029-6.514 9.59-.941 1.793-2.085 3.495-3.719 4.729-1.622 1.227-3.445 1.68-5.325 2.33-1.157.4-2.299.843-3.415 1.35-4.167 1.894-8.674 4.944-10.038 9.568-.666 2.254-.365 4.602.518 6.752.452 1.102 1.004 2.158 1.633 3.169 2.504 4.021 6.03 7.591 9.594 10.687 1.744 1.517 3.716 2.902 5.998 3.434 2.748.641 5.819.075 8.257-1.304 4.857-2.748 7.449-11.632 7.449-11.632.331-1.062.659-2.125 1.084-3.15.761-1.835 1.89-3.381 3.572-4.471.83-.535 1.724-.965 2.616-1.385 1.091-.513 2.185-.951 3.218-1.578 1.552-.941 2.993-2.17 3.803-3.828.233-.48.535-1.122.554-1.68.024-.802-.315-1.828-1.226-1.978-.925-.151-1.677.542-2.418.978-.938.551-1.959 1.017-3.05 1.148-.927.113-1.769-.264-2.491-.821-.949-.733-2.045-2.18-2.075-3.456-.002-.117-.037-.197.058-.296.031-.032 31.75-32.822 34.772-35.844 3.025-3.025 5.549-1.503 5.549-1.503 1.695-1.659 3.891-5.41 4.787-6.793.9-1.382 2.18.242 3.732-.587 1.557-.83 2.594-3.111 1.16-4.685-1.2-1.311-2.989-.729-3.555-.495zm-50.45 44.193c.634 2.104 1.523 4.114 2.426 6.113.977 2.164 1.793 4.693 4.342 5.422.582.165 1.287.279 1.893.234 1.5-.107 2.794-.832 4.039-1.621.273-.174.856-.709 1.129-.312.272.395-.067 1.227-.246 1.584-.412.834-1.125 1.508-1.836 2.09-2.394 1.959-5.368 2.723-7.918 4.389-1.292.845-2.149 2.062-2.807 3.438-1.059 2.212-1.905 4.525-2.801 6.808-.133.34-.267.681-.402 1.021-.433 1.097-.893 2.146-1.466 3.179-.479.861-1.409 2.461-2.663 2.189-.46-.102-.777-.562-.967-.962-.458-.964-.432-2.134-.441-3.175-.011-1.269-.348-2.601-.88-3.748-.471-1.016-1.133-1.897-1.878-2.717-.734-.809-1.549-1.554-2.335-2.301-1.191-1.132-2.299-2.355-3.537-3.438-.816-.719-1.987-1.611-2.306-2.711-.793-2.731 1.656-5.295 3.748-6.607.668-.42 1.386-.771 2.111-1.086 2.567-1.109 5.087-2.314 7.129-4.273 1.232-1.184 2.043-2.559 2.991-3.955.268-.393.568-.847 1.031-1.021 1.033-.401 1.409.685 1.644 1.46z"/><circle cx="33.902" cy="84.067" r="1.434"/><circle cx="33.463" cy="79.112" r="1.435"/><circle cx="32.081" cy="74.273" r="1.434"/><path d="m35.811 65.986c.406.404.406 1.062 0 1.469-.406.404-1.064.404-1.47 0l-4.077-4.078c-.406-.406-.406-1.064 0-1.47.405-.406 1.063-.406 1.469 0z"/><path d="m31.011 70.988c.324.474.203 1.121-.271 1.443-.473.322-1.121.2-1.444-.271l-3.256-4.76c-.324-.476-.203-1.121.271-1.443.474-.325 1.121-.203 1.445.271z"/><path d="m40.615 61.182c.406.404.406 1.062 0 1.469-.405.404-1.063.406-1.469 0l-4.078-4.076c-.406-.406-.406-1.064 0-1.471.406-.405 1.063-.405 1.469 0z"/><g font-family="'Helvetica Neue', Helvetica, Arial-Unicode, Arial, Sans-serif" font-size="5" font-weight="bold"><text y="115">Created by Gustavo Perez Rangel</text><text y="120">from the Noun Project</text></g></svg>